<?xml version="1.0" standalone="no"?><svg xmlns:xlink="http://www.w3.org/1999/xlink" xmlns="http://www.w3.org/2000/svg" viewBox="0 0 1000 600.0035324009477" preserveAspectRatio="xMaxYMax slice"><g transform="scale(1.2615717670331112)"><rect x="0" y="0" width="792.6666666666666" height="475.6" fill="#ffffff"/><rect x="0" y="0" width="158.53" height="158.53" fill="#fff5f7"/><polygon points="0,0 158.53,0 158.53,158.53" fill="#fffefe"/><rect x="158.53" y="0" width="158.53" height="158.53" fill="#fff6f7"/><polygon points="158.53,0 317.06,158.53 158.53,158.53" fill="#f4dfe5"/><rect x="317.07" y="0" width="158.53" height="158.53" fill="#fff8f9"/><polygon points="317.07,0 475.6,0 317.07,158.53" fill="#f2d8df"/><rect x="475.6" y="0" width="158.53" height="158.53" fill="#faf0f3"/><polygon points="475.6,0 634.13,158.53 475.6,158.53" fill="#fff6f8"/><rect x="634.13" y="0" width="158.53" height="158.53" fill="#fff8f9"/><polygon points="792.66,0 792.66,158.53 634.13,158.53" fill="#fffeff"/><rect x="0" y="158.53" width="158.53" height="158.53" fill="#b62e53"/><polygon points="0,158.53 158.53,158.53 0,317.06" fill="#e5b3c1"/><rect x="158.53" y="158.53" width="158.53" height="158.53" fill="#fffeff"/><polygon points="317.06,158.53 317.06,317.06 158.53,317.06" fill="#fffdfd"/><rect x="317.07" y="158.53" width="158.53" height="158.53" fill="#efd0d9"/><polygon points="317.07,158.53 475.6,158.53 475.6,317.06" fill="#ab0e39"/><rect x="475.6" y="158.53" width="158.53" height="158.53" fill="#f2dae0"/><polygon points="634.13,158.53 634.13,317.06 475.6,317.06" fill="#fffbfc"/><rect x="634.13" y="158.53" width="158.53" height="158.53" fill="#dfa3b3"/><polygon points="634.13,158.53 792.66,158.53 792.66,317.06" fill="#fff7f9"/><rect x="0" y="317.07" width="158.53" height="158.53" fill="#fffbfb"/><polygon points="0,317.07 158.53,317.07 158.53,475.6" fill="#d38097"/><rect x="158.53" y="317.07" width="158.53" height="158.53" fill="#b62d53"/><polygon points="158.53,317.07 317.06,475.6 158.53,475.6" fill="#fffcfd"/><rect x="317.07" y="317.07" width="158.53" height="158.53" fill="#fff7f9"/><polygon points="317.07,317.07 475.6,475.6 317.07,475.6" fill="#e1a9b8"/><rect x="475.6" y="317.07" width="158.53" height="158.53" fill="#d78da1"/><polygon points="475.6,317.07 634.13,475.6 475.6,475.6" fill="#fff6f8"/><rect x="634.13" y="317.07" width="158.53" height="158.53" fill="#fff8f9"/><polygon points="634.13,317.07 792.66,317.07 634.13,475.6" fill="#fff8f9"/></g></svg>