<svg width="604" height="375" viewBox="0 0 604 375" fill="none" xmlns="http://www.w3.org/2000/svg">
<g clip-path="url(#clip0_13_304)">
<path d="M627.004 -1H0V375H627.004V-1Z" fill="white"/>
<path d="M125.399 -1H0V124.332H125.399V-1Z" fill="#FCFCFC"/>
<path d="M0 -1H125.399L0 124.332V-1Z" fill="#D4839A"/>
<path d="M250.798 -1H125.399V124.332H250.798V-1Z" fill="#FCFCFC"/>
<path d="M125.399 -1H250.798L125.399 124.332V-1Z" fill="#FBFBFB"/>
<path d="M376.202 -1H250.803V124.332H376.202V-1Z" fill="#F3DBE2"/>
<path d="M250.803 -1H376.202V124.332L250.803 -1Z" fill="#FDFDFD"/>
<path d="M501.601 -1H376.202V124.332H501.601V-1Z" fill="#EDCAD4"/>
<path d="M376.202 -1L501.601 124.332H376.202V-1Z" fill="#FCFCFC"/>
<path d="M627 -1H501.601V124.332H627V-1Z" fill="#C65A78"/>
<path d="M627 -1V124.332H501.601L627 -1Z" fill="#EECED7"/>
<path d="M125.399 124.332H0V249.663H125.399V124.332Z" fill="#FDFDFD"/>
<path d="M0 124.332H125.399V249.663L0 124.332Z" fill="white"/>
<path d="M250.798 124.332H125.399V249.663H250.798V124.332Z" fill="#FEFEFE"/>
<path d="M125.399 124.332L250.798 249.663H125.399V124.332Z" fill="#FDFDFD"/>
<path d="M376.202 124.332H250.803V249.663H376.202V124.332Z" fill="white"/>
<path d="M250.803 124.332L376.202 249.663H250.803V124.332Z" fill="#FDFDFD"/>
<path d="M501.601 124.332H376.202V249.663H501.601V124.332Z" fill="#FDFAFB"/>
<path d="M501.601 124.332V249.663H376.202L501.601 124.332Z" fill="white"/>
<path d="M627 124.332H501.601V249.663H627V124.332Z" fill="#DC9BAD"/>
<path d="M501.601 124.332H627V249.663L501.601 124.332Z" fill="#D78DA1"/>
<path d="M125.399 249.668H0V375H125.399V249.668Z" fill="#C14B6C"/>
<path d="M0 249.668H125.399L0 375V249.668Z" fill="#FBFBFB"/>
<path d="M250.798 249.668H125.399V375H250.798V249.668Z" fill="#FDFDFD"/>
<path d="M125.399 249.668L250.798 375H125.399V249.668Z" fill="#FCFCFC"/>
<path d="M376.202 249.668H250.803V375H376.202V249.668Z" fill="#FCFCFC"/>
<path d="M250.803 249.668H376.202L250.803 375V249.668Z" fill="#CF758E"/>
<path d="M501.601 249.668H376.202V375H501.601V249.668Z" fill="#FCFCFC"/>
<path d="M376.202 249.668H501.601L376.202 375V249.668Z" fill="#FCFCFC"/>
<path d="M627 249.668H501.601V375H627V249.668Z" fill="#B2234B"/>
<path d="M501.601 249.668L627 375H501.601V249.668Z" fill="white"/>
</g>
<defs>
<clipPath id="clip0_13_304">
<rect width="627" height="376" fill="white" transform="translate(0 -1)"/>
</clipPath>
</defs>
</svg>
